<?xml version="1.0" encoding="UTF-8" standalone="no"?><!DOCTYPE svg PUBLIC "-//W3C//DTD SVG 1.1//EN" "http://www.w3.org/Graphics/SVG/1.1/DTD/svg11.dtd"><svg width="100%" height="100%" viewBox="0 0 1280 960" version="1.1" xmlns="http://www.w3.org/2000/svg" xmlns:xlink="http://www.w3.org/1999/xlink" xml:space="preserve" xmlns:serif="http://www.serif.com/" style="fill-rule:evenodd;clip-rule:evenodd;stroke-linejoin:round;stroke-miterlimit:2;"><rect id="a" x="0" y="0" width="1280" height="960" style="fill:none;"/><g><rect x="0" y="0" width="1280" height="960" style="fill:#0f052a;"/><circle cx="1123.94" cy="292" r="10" style="fill:#fff;"/><circle cx="1173.94" cy="399" r="10" style="fill:#fff;"/><circle cx="980.943" cy="210" r="10" style="fill:#fff;"/><circle cx="1030.94" cy="103" r="10" style="fill:#fff;"/><circle cx="560.943" cy="349" r="10" style="fill:#fff;"/><circle cx="518.943" cy="437" r="10" style="fill:#fff;"/><circle cx="417.943" cy="267" r="10" style="fill:#fff;"/><circle cx="467.943" cy="160" r="10" style="fill:#fff;"/><circle cx="232.943" cy="498" r="10" style="fill:#fff;"/><circle cx="282.943" cy="391" r="10" style="fill:#fff;"/><circle cx="89.943" cy="580" r="10" style="fill:#fff;"/><circle cx="139.943" cy="687" r="10" style="fill:#fff;"/><path d="M946.443,493.5c0,5.519 4.481,10 10,10c5.519,0 10,-4.481 10,-10c0,-5.519 -4.481,-10 -10,-10c-5.519,0 -10,4.481 -10,10Z" style="fill:#fff;"/><path d="M1053.44,543.5c0,5.519 4.481,10 10,10c5.519,0 10,-4.481 10,-10c0,-5.519 -4.481,-10 -10,-10c-5.519,0 -10,4.481 -10,10Z" style="fill:#fff;"/><path d="M884.443,350.5c0,5.519 -4.481,10 -10,10c-5.519,0 -10,-4.481 -10,-10c0,-5.519 4.481,-10 10,-10c5.519,0 10,4.481 10,10Z" style="fill:#fff;"/><path d="M777.443,400.5c0,5.519 -4.481,10 -10,10c-5.519,0 -10,-4.481 -10,-10c0,-5.519 4.481,-10 10,-10c5.519,0 10,4.481 10,10Z" style="fill:#fff;"/><circle cx="1058.94" cy="128" r="5" style="fill:#fff;"/><circle cx="923.943" cy="83" r="10" style="fill:#fff;"/><circle cx="627.943" cy="460" r="5" style="fill:#fff;"/><circle cx="387.943" cy="239" r="5" style="fill:#fff;"/><circle cx="928.943" cy="398" r="5" style="fill:#fff;"/><circle cx="688.943" cy="177" r="5" style="fill:#fff;"/><circle cx="354.943" cy="641" r="5" style="fill:#fff;"/><circle cx="594.943" cy="420" r="5" style="fill:#fff;"/><circle cx="53.943" cy="579" r="5" style="fill:#fff;"/><circle cx="293.943" cy="358" r="5" style="fill:#fff;"/><circle cx="691.943" cy="588" r="5" style="fill:#fff;"/><circle cx="931.943" cy="367" r="5" style="fill:#fff;"/><circle cx="814.943" cy="463" r="5" style="fill:#fff;"/><circle cx="630.943" cy="305" r="5" style="fill:#fff;"/><circle cx="922.943" cy="609" r="10" style="fill:#fff;"/><circle cx="626.943" cy="232" r="5" style="fill:#fff;"/><circle cx="386.943" cy="453" r="5" style="fill:#fff;"/><circle cx="927.943" cy="294" r="5" style="fill:#fff;"/><circle cx="141.943" cy="442" r="5" style="fill:#fff;"/><circle cx="1025.94" cy="391" r="5" style="fill:#fff;"/><circle cx="1215.94" cy="660" r="5" style="fill:#fff;"/><circle cx="1191.94" cy="543" r="5" style="fill:#fff;"/><circle cx="1091.94" cy="629" r="5" style="fill:#fff;"/><circle cx="87.943" cy="763" r="5" style="fill:#fff;"/><circle cx="216.943" cy="599" r="5" style="fill:#fff;"/><circle cx="77.943" cy="451" r="5" style="fill:#fff;"/><circle cx="1223.94" cy="63" r="5" style="fill:#fff;"/><circle cx="539.943" cy="63" r="5" style="fill:#fff;"/><circle cx="353.943" cy="51" r="5" style="fill:#fff;"/><circle cx="593.943" cy="272" r="5" style="fill:#fff;"/><circle cx="52.943" cy="113" r="5" style="fill:#fff;"/><circle cx="292.943" cy="334" r="5" style="fill:#fff;"/><circle cx="690.943" cy="104" r="5" style="fill:#fff;"/><circle cx="930.943" cy="325" r="5" style="fill:#fff;"/><circle cx="389.943" cy="166" r="5" style="fill:#fff;"/><circle cx="629.943" cy="387" r="5" style="fill:#fff;"/><circle cx="508.943" cy="557.5" r="5" style="fill:#fff;"/><circle cx="544.943" cy="576.5" r="5" style="fill:#fff;"/><circle cx="585.943" cy="595.5" r="5" style="fill:#fff;"/><circle cx="595.943" cy="641.5" r="5" style="fill:#fff;"/><circle cx="675.943" cy="641.5" r="5" style="fill:#fff;"/><circle cx="441.943" cy="557.5" r="5" style="fill:#fff;"/></g></svg>