<?xml version="1.0" encoding="UTF-8" standalone="no"?><!DOCTYPE svg PUBLIC "-//W3C//DTD SVG 1.1//EN" "http://www.w3.org/Graphics/SVG/1.1/DTD/svg11.dtd"><svg width="100%" height="100%" viewBox="0 0 398 455" version="1.1" xmlns="http://www.w3.org/2000/svg" xmlns:xlink="http://www.w3.org/1999/xlink" xml:space="preserve" xmlns:serif="http://www.serif.com/" style="fill-rule:evenodd;clip-rule:evenodd;stroke-linecap:round;stroke-linejoin:round;stroke-miterlimit:1.5;"><rect id="flocon" x="0" y="0" width="398" height="455" style="fill:none;"/><clipPath id="_clip1"><rect x="0" y="0" width="398" height="455"/></clipPath><g clip-path="url(#_clip1)"><g id="flocon1" serif:id="flocon"><circle cx="200" cy="228" r="19" style="fill:#9dcaff;"/><g><circle cx="370" cy="228" r="11" style="fill:#9dcaff;"/><rect x="218" y="225.5" width="142" height="5" style="fill:#9dcaff;"/><path d="M290.227,228l16.329,16.892l-9.939,9.608l-25.617,-26.5l25.617,-26.5l9.939,9.608l-16.329,16.892l92.773,0l-92.773,0Z" style="fill:#9dcaff;"/></g><g><circle cx="30" cy="228" r="11" style="fill:#9dcaff;"/><rect x="40" y="225.5" width="142" height="5" style="fill:#9dcaff;"/><path d="M109.773,228l-16.329,16.892l9.939,9.608l25.617,-26.5l-25.617,-26.5l-9.939,9.608l16.329,16.892l-92.773,0l92.773,0Z" style="fill:#9dcaff;"/></g><g><path d="M283.407,79.664c3.269,-5.116 10.076,-6.616 15.192,-3.347c5.116,3.269 6.615,10.077 3.346,15.193c-3.269,5.115 -10.076,6.615 -15.192,3.346c-5.116,-3.269 -6.615,-10.077 -3.346,-15.192Z" style="fill:#9dcaff;"/><path d="M285.185,92.667l-76.461,119.657l4.214,2.692l76.46,-119.657l-4.213,-2.692Z" style="fill:#9dcaff;"/><path d="M249.722,152.808l23.027,-4.665l2.744,13.549l-36.124,7.317l-8.537,-35.855l13.448,-3.202l5.442,22.856l49.954,-78.176l-49.954,78.176Z" style="fill:#9dcaff;"/></g><g><path d="M100.332,366.166c-3.269,5.116 -1.769,11.923 3.347,15.192c5.115,3.269 11.923,1.77 15.192,-3.346c3.269,-5.116 1.769,-11.923 -3.346,-15.192c-5.116,-3.269 -11.924,-1.77 -15.193,3.346Z" style="fill:#9dcaff;"/><path d="M112.879,362.316l76.461,-119.657l4.213,2.693l-76.46,119.657l-4.214,-2.693Z" style="fill:#9dcaff;"/><path d="M152.556,304.868l5.441,22.855l13.448,-3.201l-8.536,-35.856l-36.124,7.317l2.744,13.549l23.027,-4.664l-49.954,78.176l49.954,-78.176Z" style="fill:#9dcaff;"/></g><g><path d="M105.637,87.769c-3.071,-5.237 -1.314,-11.982 3.923,-15.054c5.236,-3.072 11.982,-1.314 15.054,3.923c3.071,5.236 1.314,11.982 -3.923,15.053c-5.237,3.072 -11.982,1.314 -15.054,-3.922Z" style="fill:#9dcaff;"/><path d="M118.029,92.094l71.846,122.483l4.313,-2.53l-71.847,-122.483l-4.312,2.53Z" style="fill:#9dcaff;"/><path d="M155.487,151.012l6.309,-22.632l13.316,3.712l-9.896,35.504l-35.819,-8.688l3.258,-13.434l22.832,5.538l-46.939,-80.022l46.939,80.022Z" style="fill:#9dcaff;"/></g><g><path d="M277.664,381.038c3.072,5.237 9.817,6.994 15.054,3.922c5.237,-3.071 6.994,-9.817 3.922,-15.053c-3.071,-5.237 -9.817,-6.995 -15.053,-3.923c-5.237,3.072 -6.995,9.817 -3.923,15.054Z" style="fill:#9dcaff;"/><path d="M279.936,368.112l-71.846,-122.483l4.313,-2.53l71.846,122.483l-4.313,2.53Z" style="fill:#9dcaff;"/><path d="M246.79,306.664l22.832,5.538l3.259,-13.435l-35.819,-8.688l-9.896,35.504l13.316,3.712l6.308,-22.631l46.94,80.022l-46.94,-80.022Z" style="fill:#9dcaff;"/></g><path d="M200,156l62.354,36l0,72l-62.354,36l-62.354,-36l0,-72l62.354,-36Z" style="fill:none;stroke:#9dcaff;stroke-width:10px;"/><g><path d="M190.731,9.077c3.269,-5.116 10.076,-6.615 15.192,-3.346c5.116,3.269 6.615,10.076 3.346,15.192c-3.269,5.116 -10.076,6.615 -15.192,3.346c-5.116,-3.269 -6.615,-10.076 -3.346,-15.192Z" style="fill:#9dcaff;"/><path d="M197.5,25l0,131l5,0l0,-131l-5,0Z" style="fill:#9dcaff;"/><path d="M200,52.373l21.779,-21.053l4.721,4.884l-26.5,25.617l-26.5,-25.617l4.721,-4.884l21.779,21.053l0,-102.552l0,102.552Z" style="fill:#9dcaff;"/><path d="M200,81.681l31.87,-30.808l4.568,4.724l-36.438,35.224l-36.437,-35.224l4.567,-4.724l31.87,30.808l0,-144.86l0,144.86Z" style="fill:#9dcaff;"/><path d="M200,114.014l40.581,-39.229l3.901,4.036l-44.482,43l-44.482,-43l3.901,-4.036l40.581,39.229l0,-180.193l0,180.193Z" style="fill:#9dcaff;"/></g><g><path d="M209.269,447.744c-3.269,5.115 -10.076,6.615 -15.192,3.346c-5.116,-3.269 -6.615,-10.077 -3.346,-15.192c3.269,-5.116 10.076,-6.616 15.192,-3.347c5.116,3.269 6.615,10.077 3.346,15.193Z" style="fill:#9dcaff;"/><path d="M202.5,431.821l0,-131l-5,0l0,131l5,0Z" style="fill:#9dcaff;"/><path d="M200,404.448l-21.779,21.053l-4.721,-4.884l26.5,-25.617l26.5,25.617l-4.721,4.884l-21.779,-21.053l0,102.552l0,-102.552Z" style="fill:#9dcaff;"/><path d="M200,375.14l-31.87,30.808l-4.567,-4.725l36.437,-35.223l36.438,35.223l-4.568,4.725l-31.87,-30.808l0,144.86l0,-144.86Z" style="fill:#9dcaff;"/><path d="M200,342.807l-40.581,39.229l-3.901,-4.036l44.482,-43l44.482,43l-3.901,4.036l-40.581,-39.229l0,180.193l0,-180.193Z" style="fill:#9dcaff;"/></g><g><path d="M5.239,126.382c-2.793,-5.39 -0.685,-12.034 4.705,-14.828c5.39,-2.793 12.034,-0.685 14.828,4.705c2.793,5.39 0.685,12.034 -4.705,14.828c-5.39,2.793 -12.034,0.685 -14.828,-4.705Z" style="fill:#9dcaff;"/><path d="M22.413,128.489l113.421,65.548l2.502,-4.329l-113.421,-65.548l-2.502,4.329Z" style="fill:#9dcaff;"/><path d="M47.363,140.021l-7.33,-29.391l6.591,-1.644l8.92,35.762l-35.44,10.126l-1.866,-6.531l29.125,-8.322l-88.791,-51.314l88.791,51.314Z" style="fill:#9dcaff;"/><path d="M72.739,154.685l-10.728,-43.009l6.376,-1.59l12.265,49.173l-48.729,13.923l-1.805,-6.318l42.621,-12.179l-125.422,-72.483l125.422,72.483Z" style="fill:#9dcaff;"/><path d="M100.733,170.864l-13.659,-54.765l5.446,-1.358l14.972,60.029l-59.487,16.998l-1.542,-5.397l54.27,-15.507l-156.014,-90.163l156.014,90.163Z" style="fill:#9dcaff;"/></g><g><path d="M394.319,329.826c2.794,5.39 0.686,12.034 -4.704,14.828c-5.391,2.793 -12.035,0.685 -14.828,-4.705c-2.794,-5.39 -0.686,-12.034 4.704,-14.828c5.39,-2.794 12.034,-0.686 14.828,4.705Z" style="fill:#9dcaff;"/><path d="M377.146,327.719l-113.422,-65.548l-2.502,4.329l113.422,65.548l2.502,-4.329Z" style="fill:#9dcaff;"/><path d="M352.195,316.187l7.331,29.391l-6.591,1.644l-8.92,-35.762l35.439,-10.126l1.866,6.531l-29.125,8.322l88.791,51.314l-88.791,-51.314Z" style="fill:#9dcaff;"/><path d="M326.82,301.522l10.727,43.01l-6.376,1.59l-12.265,-49.173l48.729,-13.923l1.806,6.318l-42.621,12.178l125.422,72.484l-125.422,-72.484Z" style="fill:#9dcaff;"/><path d="M298.825,285.344l13.66,54.764l-5.446,1.359l-14.973,-60.029l59.487,-16.998l1.542,5.397l-54.27,15.507l156.014,90.163l-156.014,-90.163Z" style="fill:#9dcaff;"/></g><g><path d="M383.563,110.369c6.065,0.27 10.77,5.413 10.5,11.478c-0.27,6.065 -5.414,10.77 -11.479,10.5c-6.065,-0.27 -10.77,-5.413 -10.5,-11.478c0.271,-6.065 5.414,-10.77 11.479,-10.5Z" style="fill:#9dcaff;"/><path d="M373.165,124.198l-113.417,65.556l2.502,4.329l113.417,-65.556l-2.502,-4.329Z" style="fill:#9dcaff;"/><path d="M350.717,140.06l29.126,8.32l-1.866,6.532l-35.44,-10.123l8.918,-35.763l6.591,1.643l-7.329,29.391l88.787,-51.32l-88.787,51.32Z" style="fill:#9dcaff;"/><path d="M325.343,154.727l42.622,12.175l-1.805,6.319l-48.73,-13.92l12.261,-49.174l6.376,1.59l-10.724,43.01l125.416,-72.492l-125.416,72.492Z" style="fill:#9dcaff;"/><path d="M297.35,170.908l54.271,15.502l-1.542,5.397l-59.488,-16.993l14.968,-60.03l5.446,1.358l-13.655,54.766l156.007,-90.175l-156.007,90.175Z" style="fill:#9dcaff;"/></g><g><path d="M13.053,345.942c-6.065,-0.27 -10.77,-5.414 -10.5,-11.479c0.27,-6.065 5.414,-10.77 11.479,-10.5c6.065,0.271 10.77,5.414 10.5,11.479c-0.27,6.065 -5.414,10.77 -11.479,10.5Z" style="fill:#9dcaff;"/><path d="M23.451,332.113l113.417,-65.557l-2.502,-4.329l-113.417,65.557l2.502,4.329Z" style="fill:#9dcaff;"/><path d="M45.899,316.25l-29.126,-8.32l1.866,-6.531l35.44,10.123l-8.917,35.763l-6.592,-1.644l7.329,-29.391l-88.787,51.32l88.787,-51.32Z" style="fill:#9dcaff;"/><path d="M71.273,301.583l-42.622,-12.175l1.805,-6.318l48.73,13.919l-12.261,49.174l-6.376,-1.59l10.724,-43.01l-125.416,72.493l125.416,-72.493Z" style="fill:#9dcaff;"/><path d="M99.266,285.403l-54.271,-15.503l1.542,-5.397l59.488,16.993l-14.968,60.03l-5.446,-1.358l13.655,-54.765l-156.007,90.174l156.007,-90.174Z" style="fill:#9dcaff;"/></g></g></g></svg>