<?xml version="1.0" encoding="UTF-8" standalone="no"?><!DOCTYPE svg PUBLIC "-//W3C//DTD SVG 1.1//EN" "http://www.w3.org/Graphics/SVG/1.1/DTD/svg11.dtd"><svg width="100%" height="100%" viewBox="0 0 200 245" version="1.1" xmlns="http://www.w3.org/2000/svg" xmlns:xlink="http://www.w3.org/1999/xlink" xml:space="preserve" xmlns:serif="http://www.serif.com/" style="fill-rule:evenodd;clip-rule:evenodd;stroke-linejoin:round;stroke-miterlimit:2;"><rect id="sapin" x="0" y="0" width="200" height="245" style="fill:none;"/><clipPath id="_clip1"><rect x="0" y="0" width="200" height="245"/></clipPath><g clip-path="url(#_clip1)"><g id="sapin1" serif:id="sapin"><path d="M110.426,136.962c-6.932,-0.392 -13.92,-0.392 -20.852,0c-13.031,1.787 -19.821,6.307 -20.368,13.561c-9.886,-4.921 -20.606,-5.524 -32.159,-1.812c-5.415,2.37 -10.357,5.038 -14.745,7.963c-6.875,6.238 -5.757,12.027 3.355,17.365c-13.434,0.296 -21.804,3.962 -25.112,10.999c-0.727,3.743 -0.727,7.517 0,11.26c3.308,7.037 11.678,10.703 25.112,10.999c-9.112,5.338 -10.23,11.127 -3.355,17.366c4.388,2.924 9.33,5.593 14.745,7.962c11.553,3.713 22.273,3.109 32.159,-1.811c0.547,7.254 7.337,11.774 20.368,13.56c6.932,0.392 13.92,0.392 20.852,0c13.031,-1.786 19.821,-6.306 20.368,-13.56c9.886,4.92 20.606,5.524 32.159,1.811c5.415,-2.369 10.357,-5.038 14.745,-7.962c6.875,-6.239 5.757,-12.028 -3.355,-17.366c13.434,-0.296 21.804,-3.962 25.112,-10.999c0.727,-3.743 0.727,-7.517 0,-11.26c-3.308,-7.037 -11.678,-10.703 -25.112,-10.999c9.112,-5.338 10.23,-11.127 3.355,-17.365c-4.388,-2.925 -9.33,-5.593 -14.745,-7.963c-11.553,-3.712 -22.273,-3.109 -32.159,1.812c-0.547,-7.254 -7.337,-11.774 -20.368,-13.561Z" style="fill:#4d6300;"/><path d="M109.175,113.407c-6.1,-0.345 -12.25,-0.345 -18.35,0c-11.467,1.572 -17.442,5.55 -17.924,11.933c-8.699,-4.33 -18.133,-4.861 -28.3,-1.594c-4.765,2.085 -9.114,4.434 -12.975,7.007c-6.051,5.49 -5.067,10.584 2.952,15.282c-11.822,0.26 -19.188,3.486 -22.098,9.679c-0.64,3.294 -0.64,6.615 0,9.909c2.91,6.192 10.276,9.418 22.098,9.678c-8.019,4.698 -9.003,9.792 -2.952,15.282c3.861,2.574 8.21,4.922 12.975,7.007c10.167,3.267 19.601,2.736 28.3,-1.594c0.482,6.384 6.457,10.361 17.924,11.933c6.1,0.345 12.25,0.345 18.35,0c11.467,-1.572 17.442,-5.549 17.924,-11.933c8.699,4.33 18.133,4.861 28.3,1.594c4.765,-2.085 9.114,-4.433 12.975,-7.007c6.051,-5.49 5.067,-10.584 -2.952,-15.282c11.822,-0.26 19.188,-3.486 22.098,-9.678c0.64,-3.294 0.64,-6.615 0,-9.909c-2.91,-6.193 -10.276,-9.419 -22.098,-9.679c8.019,-4.698 9.003,-9.792 2.952,-15.282c-3.861,-2.573 -8.21,-4.922 -12.975,-7.007c-10.167,-3.267 -19.601,-2.736 -28.3,1.594c-0.482,-6.383 -6.457,-10.361 -17.924,-11.933Z" style="fill:#4d7500;"/><path d="M107.924,94.852c-5.268,-0.298 -10.58,-0.298 -15.848,0c-9.904,1.357 -15.063,4.793 -15.479,10.306c-7.514,-3.74 -15.661,-4.199 -24.441,-1.377c-4.116,1.801 -7.872,3.829 -11.206,6.051c-5.226,4.742 -4.376,9.141 2.549,13.198c-10.209,0.225 -16.571,3.011 -19.085,8.359c-0.552,2.845 -0.552,5.713 0,8.558c2.514,5.348 8.876,8.134 19.085,8.359c-6.925,4.057 -7.775,8.457 -2.549,13.198c3.334,2.222 7.09,4.251 11.206,6.051c8.78,2.822 16.927,2.363 24.441,-1.376c0.416,5.513 5.575,8.948 15.479,10.305c5.268,0.299 10.58,0.299 15.848,0c9.904,-1.357 15.063,-4.792 15.479,-10.305c7.514,3.739 15.661,4.198 24.441,1.376c4.116,-1.8 7.872,-3.829 11.206,-6.051c5.226,-4.741 4.376,-9.141 -2.549,-13.198c10.209,-0.225 16.571,-3.011 19.085,-8.359c0.552,-2.845 0.552,-5.713 0,-8.558c-2.514,-5.348 -8.876,-8.134 -19.085,-8.359c6.925,-4.057 7.775,-8.456 2.549,-13.198c-3.334,-2.222 -7.09,-4.25 -11.206,-6.051c-8.78,-2.822 -16.927,-2.363 -24.441,1.377c-0.416,-5.513 -5.575,-8.949 -15.479,-10.306Z" style="fill:#4d8500;"/><path d="M106.568,79.834c-4.367,-0.248 -8.769,-0.248 -13.136,0c-8.21,1.125 -12.487,3.973 -12.832,8.543c-6.228,-3.1 -12.982,-3.481 -20.26,-1.142c-3.412,1.493 -6.525,3.174 -9.289,5.017c-4.332,3.93 -3.628,7.577 2.113,10.94c-8.463,0.186 -13.737,2.496 -15.821,6.929c-0.457,2.358 -0.457,4.736 0,7.094c2.084,4.433 7.358,6.743 15.821,6.929c-5.741,3.363 -6.445,7.01 -2.113,10.941c2.764,1.842 5.877,3.523 9.289,5.016c7.278,2.339 14.032,1.959 20.26,-1.141c0.345,4.57 4.622,7.417 12.832,8.543c4.367,0.247 8.769,0.247 13.136,0c8.21,-1.126 12.487,-3.973 12.832,-8.543c6.228,3.1 12.982,3.48 20.26,1.141c3.412,-1.493 6.525,-3.174 9.289,-5.016c4.332,-3.931 3.628,-7.578 -2.113,-10.941c8.463,-0.186 13.737,-2.496 15.821,-6.929c0.457,-2.358 0.457,-4.736 0,-7.094c-2.084,-4.433 -7.358,-6.743 -15.821,-6.929c5.741,-3.363 6.445,-7.01 2.113,-10.94c-2.764,-1.843 -5.877,-3.524 -9.289,-5.017c-7.278,-2.339 -14.032,-1.958 -20.26,1.142c-0.345,-4.57 -4.622,-7.418 -12.832,-8.543Z" style="fill:#4d9400;"/><g><path d="M151.26,89.628c0.623,0.607 1.093,1.294 1.451,2.056c0.385,1.984 0.385,3.984 0,5.968c-1.753,3.73 -6.189,5.673 -13.309,5.829c4.829,2.83 5.422,5.898 1.778,9.204c-2.326,1.55 -4.945,2.964 -7.815,4.22c-6.123,1.968 -11.805,1.648 -17.044,-0.96c-0.29,3.845 -3.889,6.241 -10.795,7.187c-3.674,0.208 -7.378,0.208 -11.052,0c-6.906,-0.946 -10.505,-3.342 -10.795,-7.187c-5.239,2.608 -10.921,2.928 -17.044,0.96c-2.87,-1.256 -5.489,-2.67 -7.815,-4.22c-3.644,-3.306 -3.051,-6.374 1.778,-9.204c-7.12,-0.156 -11.556,-2.099 -13.309,-5.829c-0.385,-1.984 -0.385,-3.984 0,-5.968c0.358,-0.762 0.828,-1.449 1.451,-2.056l102.52,0Z" style="fill:#4da300;"/><g id="pointe"><path d="M57.633,83.501c0.648,0.794 1.649,1.583 2.965,2.354c-5.665,0.125 -9.631,1.38 -11.858,3.773l-1.74,0c3.029,-1.095 6.689,-3.141 10.633,-6.127Z" style="fill:#4da300;"/><path d="M142.345,83.53c3.924,2.941 7.574,4.972 10.655,6.098l-1.74,0c-2.227,-2.393 -6.193,-3.648 -11.858,-3.773c1.284,-0.752 2.268,-1.521 2.943,-2.325Z" style="fill:#4da300;"/><path d="M70.855,71.438c5.415,-5.961 10.744,-13.226 15.307,-21.615c6.561,-12.062 11.371,-39.885 13.838,-49.823c2.468,9.938 6.998,37.761 13.559,49.823c4.55,8.365 9.901,15.612 15.357,21.572c-4.444,-0.636 -8.645,0.03 -12.595,1.996c-0.29,-3.845 -3.889,-6.24 -10.795,-7.187c-3.674,-0.208 -7.378,-0.208 -11.052,0c-6.906,0.947 -10.505,3.342 -10.795,7.187c-4.019,-2 -8.298,-2.655 -12.824,-1.953Z" style="fill:#4da300;"/><path d="M70.855,71.438c4.526,-0.702 8.805,-0.047 12.824,1.953c0.29,-3.845 3.889,-6.24 10.795,-7.187c3.674,-0.208 7.378,-0.208 11.052,0c6.906,0.947 10.505,3.342 10.795,7.187c3.95,-1.966 8.151,-2.632 12.595,-1.996c4.534,4.985 9.133,9.076 13.429,12.135c-0.675,0.804 -1.659,1.573 -2.943,2.325c5.665,0.125 9.631,1.38 11.858,3.773l-102.52,0c2.227,-2.393 6.193,-3.648 11.858,-3.773c-1.316,-0.771 -2.317,-1.56 -2.965,-2.354c4.204,-3.06 8.743,-7.112 13.222,-12.063Z" style="fill:#4da300;"/></g></g></g></g></svg>