<?xml version="1.0" encoding="UTF-8" standalone="no"?><!DOCTYPE svg PUBLIC "-//W3C//DTD SVG 1.1//EN" "http://www.w3.org/Graphics/SVG/1.1/DTD/svg11.dtd"><svg width="100%" height="100%" viewBox="0 0 920 600" version="1.1" xmlns="http://www.w3.org/2000/svg" xmlns:xlink="http://www.w3.org/1999/xlink" xml:space="preserve" xmlns:serif="http://www.serif.com/" style="fill-rule:evenodd;clip-rule:evenodd;stroke-linecap:round;stroke-linejoin:round;stroke-miterlimit:1.5;"><rect id="stalactite" x="0" y="0" width="920" height="600" style="fill:none;"/><clipPath id="_clip1"><rect x="0" y="0" width="920" height="600"/></clipPath><g clip-path="url(#_clip1)"><g><g><path d="M86.5,356l86.5,-356l-173,0l86.5,356Z" style="fill:#e2fcfb;stroke:#000;stroke-width:1px;"/><path d="M223,300l50,-300l-100,0l50,300Z" style="fill:#e2fcfb;stroke:#000;stroke-width:1px;"/><path d="M336.5,467l63.5,-467l-127,0l63.5,467Z" style="fill:#e2fcfb;stroke:#000;stroke-width:1px;"/><path d="M565.5,247l57.5,-247l-115,0l57.5,247Z" style="fill:#e2fcfb;stroke:#000;stroke-width:1px;"/><path d="M696.5,368l73.5,-368l-147,0l73.5,368Z" style="fill:#e2fcfb;stroke:#000;stroke-width:1px;"/><path d="M845,450l75,-450l-150,0l75,450Z" style="fill:#e2fcfb;stroke:#000;stroke-width:1px;"/></g><g><path d="M273,450l75,-450l-150,0l75,450Z" style="fill:#e2fcfb;stroke:#000;stroke-width:1px;"/><path d="M621.5,388l75,-394l-150,0l75,394Z" style="fill:#e2fcfb;stroke:#000;stroke-width:1px;"/><path d="M770,277l75,-277l-150,0l75,277Z" style="fill:#e2fcfb;stroke:#000;stroke-width:1px;"/><path d="M455.5,571l70.5,-571l-141,0l70.5,571Z" style="fill:#e2fcfb;stroke:#000;stroke-width:1px;"/><path d="M163,361l67,-361l-134,0l67,361Z" style="fill:#e2fcfb;stroke:#000;stroke-width:1px;"/></g></g></g></svg>