<?xml version="1.0" encoding="UTF-8" standalone="no"?><!DOCTYPE svg PUBLIC "-//W3C//DTD SVG 1.1//EN" "http://www.w3.org/Graphics/SVG/1.1/DTD/svg11.dtd"><svg width="100%" height="100%" viewBox="0 0 162 115" version="1.1" xmlns="http://www.w3.org/2000/svg" xmlns:xlink="http://www.w3.org/1999/xlink" xml:space="preserve" xmlns:serif="http://www.serif.com/" style="fill-rule:evenodd;clip-rule:evenodd;stroke-linecap:round;stroke-linejoin:round;stroke-miterlimit:1.5;"><rect id="trainau" x="0" y="0" width="162" height="115" style="fill:none;"/><clipPath id="_clip1"><rect x="0" y="0" width="162" height="115"/></clipPath><g clip-path="url(#_clip1)"><g id="trainai-noel-cadeau"><g id="trainau-cadeau"><g id="tas-cadeau-trainau"><rect id="cadeau-un-tainau" x="21.046" y="44.984" width="34" height="23.63" style="fill:#24053c;stroke:#24053c;stroke-width:1px;"/><rect id="cadeau-deux-tainau" x="24.046" y="24.984" width="27" height="20.63" style="fill:#24053c;stroke:#24053c;stroke-width:1px;"/><g id="cadeau-troi"><rect id="cadeau-troi-tainau" x="29.046" y="4.984" width="18" height="20.63" style="fill:#24053c;stroke:#24053c;stroke-width:1px;"/><path d="M39.734,4.984c0,0 -8.755,-3.174 -12.625,-3.902c-0.814,-0.153 -1.599,0.383 -1.752,1.196c-0.153,0.814 0.383,1.599 1.197,1.752c3.871,0.729 13.18,0.954 13.18,0.954Z" style="fill:#24053c;stroke:#24053c;stroke-width:1px;"/><path d="M36.357,4.984c0,0 8.755,-3.174 12.626,-3.902c0.813,-0.153 1.598,0.383 1.751,1.196c0.153,0.814 -0.383,1.599 -1.197,1.752c-3.871,0.729 -13.18,0.954 -13.18,0.954Z" style="fill:#24053c;stroke:#24053c;stroke-width:1px;"/><circle cx="38.046" cy="2.299" r="2.299" style="fill:#24053c;stroke:#24053c;stroke-width:1px;"/></g></g><path id="Trainau" d="M0,53.51c0.933,-1.441 2.118,-2.801 3.554,-3.942c2.465,-1.959 5.39,-3.052 8.099,-3.432c21.774,5.001 64.595,15.785 69.659,24.291c7.671,12.884 32.973,19.164 37.86,15.502c9.281,-6.957 4.837,-35.846 7.247,-38.35c2.211,-2.296 5.826,-2.925 9.262,-2.444c9.294,7.987 16.277,17.988 18.134,29.342c2.235,13.67 -3.198,27.849 -12.012,39.878l-102.26,0c-4.784,-2.967 -19.415,-22.61 -22.157,-28.729c-5.413,-12.08 -11.403,-23.017 -17.386,-32.116Z" style="fill:#24053c;stroke:#24053c;stroke-width:1px;"/></g><g id="pere_noel"><ellipse cx="96.546" cy="65.355" rx="25.5" ry="29" style="fill:#24053c;stroke:#24053c;stroke-width:1px;"/><circle cx="103.046" cy="27.614" r="14.315" style="fill:#24053c;stroke:#24053c;stroke-width:1px;"/><path d="M114.881,15.53c1.418,-1.467 2.165,-3.131 2.165,-4.825c0,-5.325 -7.24,-9.649 -16.158,-9.649c-8.917,0 -16.157,4.324 -16.157,9.649c0,1.694 0.746,3.358 2.164,4.825l27.986,0Z" style="fill:#24053c;stroke:#24053c;stroke-width:1px;"/><circle cx="67.046" cy="25.355" r="3" style="fill:#24053c;stroke:#24053c;stroke-width:1px;"/><path d="M94.43,15.606c-1.045,-2.447 -7.71,-1.95 -14.875,1.11c-7.164,3.06 -12.132,7.531 -11.087,9.978c2.715,-2.028 7.235,-4.663 12.413,-6.874c5.178,-2.212 10.207,-3.655 13.549,-4.214Z" style="fill:#24053c;stroke:#24053c;stroke-width:1px;"/><path d="M66.371,22.775c1.722,2.029 7.943,-0.416 13.883,-5.457c5.94,-5.04 9.364,-10.78 7.643,-12.809c-1.995,2.74 -5.534,6.593 -9.827,10.236c-4.293,3.643 -8.671,6.508 -11.699,8.03Z" style="fill:#24053c;stroke:#24053c;stroke-width:1px;"/><ellipse cx="85.055" cy="13.355" rx="3.676" ry="3" style="fill:#24053c;stroke:#24053c;stroke-width:1px;"/><path d="M94.888,14.364c-5.606,0 -10.157,6.269 -10.157,13.991c0,7.722 4.551,13.991 10.157,13.991c-1.682,-3.265 -3.047,-8.41 -3.047,-13.991c0,-5.581 1.365,-10.727 3.047,-13.991Z" style="fill:#24053c;stroke:#24053c;stroke-width:1px;"/><path d="M110.888,14.364c5.606,0 10.158,6.269 10.158,13.991c0,7.722 -4.552,13.991 -10.158,13.991c1.682,-3.265 3.047,-8.41 3.047,-13.991c0,-5.581 -1.365,-10.727 -3.047,-13.991Z" style="fill:#24053c;stroke:#24053c;stroke-width:1px;"/><ellipse cx="110.546" cy="40.35" rx="1.5" ry="1.995" style="fill:#24053c;stroke:#24053c;stroke-width:1px;"/><path d="M116.281,52.146l-4.723,-8.191l34.755,-18.277l3.196,5.544l-33.228,20.924Z" style="fill:#24053c;stroke:#24053c;stroke-width:1px;"/><path d="M146.733,22.62c0.951,-0.561 2.967,1.093 4.499,3.691c1.532,2.598 2.004,5.162 1.053,5.723c-0.95,0.56 -2.966,-1.093 -4.498,-3.691c-1.532,-2.598 -2.004,-5.162 -1.054,-5.723Z" style="fill:#24053c;stroke:#24053c;stroke-width:1px;"/><path d="M156.64,26.513c0.613,0.044 1.211,-0.083 1.733,-0.369c1.643,-0.901 2.158,-3.126 1.149,-4.966c-1.009,-1.84 -3.162,-2.603 -4.804,-1.702c-0.523,0.287 -0.952,0.722 -1.244,1.263l3.166,5.774Z" style="fill:#24053c;stroke:#24053c;stroke-width:1px;"/><path d="M146.892,24.795c-0.007,0.944 0.239,1.867 0.713,2.676c1.488,2.542 4.823,3.362 7.442,1.829c2.619,-1.534 3.537,-4.843 2.048,-7.386c-0.474,-0.808 -1.158,-1.474 -1.984,-1.931l-8.219,4.812Z" style="fill:#24053c;stroke:#24053c;stroke-width:1px;"/><path d="M152.572,21.231c-0.036,-0.317 -0.151,-0.628 -0.331,-0.902c-0.568,-0.863 -1.64,-1.162 -2.393,-0.667c-0.754,0.496 -0.904,1.599 -0.337,2.462c0.18,0.274 0.421,0.502 0.697,0.661l2.364,-1.554Z" style="fill:#24053c;stroke:#24053c;stroke-width:1px;"/></g></g></g></svg>